<?xml version="1.0" standalone="no"?>
<!DOCTYPE svg PUBLIC "-//W3C//DTD SVG 20010904//EN"
 "http://www.w3.org/TR/2001/REC-SVG-20010904/DTD/svg10.dtd">
<svg version="1.0" xmlns="http://www.w3.org/2000/svg"
 width="512.000000pt" height="512.000000pt" viewBox="0 0 512.000000 512.000000"
 preserveAspectRatio="xMidYMid meet">
<metadata>
Created by potrace 1.14, written by Peter Selinger 2001-2017
</metadata>
<g transform="translate(0.000000,512.000000) scale(0.100000,-0.100000)"
fill="#000000" stroke="none">
<path d="M2480 5111 c-14 -5 -189 -78 -390 -163 -201 -85 -639 -271 -975 -413
-335 -142 -634 -274 -663 -292 -77 -48 -137 -107 -185 -182 -91 -140 -108
-215 -102 -451 2 -96 7 -191 9 -210 2 -19 7 -66 11 -104 4 -38 8 -79 10 -90 2
-12 6 -43 10 -71 19 -157 99 -532 134 -635 5 -14 19 -59 31 -100 25 -85 96
-283 135 -379 40 -97 157 -344 185 -391 5 -8 39 -67 76 -130 91 -157 210 -331
299 -437 5 -7 15 -18 20 -25 72 -95 320 -350 410 -423 27 -22 57 -47 65 -56
24 -26 178 -142 275 -206 233 -156 480 -286 588 -310 42 -9 232 -9 274 0 75
17 200 75 369 173 116 66 208 125 212 136 2 5 8 8 13 8 20 0 256 183 369 285
89 80 228 222 291 295 35 41 69 79 74 85 52 58 202 266 278 389 298 477 506
1048 601 1646 14 91 18 118 31 240 14 124 16 153 19 326 4 152 2 190 -14 245
-34 123 -85 208 -175 295 -77 74 -132 103 -465 244 -146 62 -294 125 -330 140
-36 15 -243 103 -460 195 -217 91 -408 172 -425 180 -27 13 -162 70 -365 155
-79 33 -190 47 -240 31z m167 -695 c43 -19 197 -84 343 -146 285 -120 302
-128 370 -157 25 -11 251 -107 503 -213 l458 -194 -6 -132 c-3 -72 -7 -140 -9
-150 -2 -11 -7 -55 -11 -99 -4 -44 -9 -83 -10 -86 -2 -3 -7 -30 -10 -60 -5
-45 -22 -138 -49 -269 -105 -515 -375 -1088 -697 -1476 -124 -150 -349 -368
-463 -449 -16 -11 -33 -25 -40 -30 -47 -43 -241 -165 -378 -239 l-88 -47 0
1891 c0 1039 2 1890 5 1890 2 0 39 -15 82 -34z"/>
</g>
</svg>
